<?xml version="1.0" encoding="utf-8"?>
<svg xmlns="http://www.w3.org/2000/svg" viewBox="808.966 34.751 382.8441 264" width="382.844px" height="264px">
  <path d="M 870.873 49.251 L 870.873 63.751 L 876.303 63.751 L 881.734 63.751 L 881.734 49.251 L 881.734 34.751 L 876.303 34.751 L 870.873 34.751 L 870.873 49.251 Z" fill="#fff" stroke="none" style="stroke-width: 0.104;" transform="matrix(0.9999999999999999, 0, 0, 0.9999999999999999, 0, -5.684341886080802e-14)"/>
  <path d="M 919.746 49.251 L 919.746 63.751 L 925.177 63.751 L 930.607 63.751 L 930.607 49.251 L 930.607 34.751 L 925.177 34.751 L 919.746 34.751 L 919.746 49.251 Z" fill="#fff" stroke="none" style="stroke-width: 0.104;" transform="matrix(0.9999999999999999, 0, 0, 0.9999999999999999, 0, -5.684341886080802e-14)"/>
  <path d="M 967.534 49.251 L 967.534 63.751 L 972.964 63.751 L 978.395 63.751 L 978.395 49.251 L 978.395 34.751 L 972.964 34.751 L 967.534 34.751 L 967.534 49.251 Z" fill="#fff" stroke="none" style="stroke-width: 0.104;" transform="matrix(0.9999999999999999, 0, 0, 0.9999999999999999, 0, -5.684341886080802e-14)"/>
  <path d="M 1019.67 49.251 L 1019.67 63.751 L 1025.1 63.751 L 1030.53 63.751 L 1030.53 49.251 L 1030.53 34.751 L 1025.1 34.751 L 1019.67 34.751 L 1019.67 49.251 Z" fill="#fff" stroke="none" style="stroke-width: 0.104;" transform="matrix(0.9999999999999999, 0, 0, 0.9999999999999999, 0, -5.684341886080802e-14)"/>
  <path d="M 1068.54 49.251 L 1068.54 63.751 L 1073.97 63.751 L 1079.4 63.751 L 1079.4 49.251 L 1079.4 34.751 L 1073.97 34.751 L 1068.54 34.751 L 1068.54 49.251 Z" fill="#fff" stroke="none" style="stroke-width: 0.104;" transform="matrix(0.9999999999999999, 0, 0, 0.9999999999999999, 0, -5.684341886080802e-14)"/>
  <path d="M 1116.33 49.251 L 1116.33 63.751 L 1121.76 63.751 L 1127.19 63.751 L 1127.19 49.251 L 1127.19 34.751 L 1121.76 34.751 L 1116.33 34.751 L 1116.33 49.251 Z" fill="#fff" stroke="none" style="stroke-width: 0.104;" transform="matrix(0.9999999999999999, 0, 0, 0.9999999999999999, 0, -5.684341886080802e-14)"/>
  <path d="M 861.098 80.251 L 861.098 90.751 L 851.106 90.751 L 841.006 90.751 L 839.159 96.651 C 836.01 106.351 824.606 115.051 812.985 116.551 L 808.966 117.051 L 809.184 133.951 L 809.509 150.951 L 813.854 152.251 C 819.067 153.951 824.823 159.651 825.692 164.251 C 826.778 169.551 823.628 175.451 817.764 178.851 C 815.157 180.451 812.007 181.751 810.921 181.751 C 809.075 181.751 808.966 183.051 808.966 198.751 L 808.966 215.751 L 812.007 216.351 C 827.755 219.551 837.639 227.551 839.92 239.051 L 840.68 242.751 L 850.889 242.751 L 860.99 242.751 L 861.315 252.951 L 861.641 263.251 L 876.195 263.251 L 890.64 263.251 L 890.857 253.251 L 890.965 243.251 L 899.98 242.951 L 908.886 242.651 L 908.886 253.251 L 908.886 263.851 L 923.874 263.551 L 938.753 263.251 L 939.079 252.951 L 939.405 242.751 L 948.528 242.751 L 957.759 242.751 L 957.759 253.251 L 957.759 263.751 L 972.964 263.751 L 988.17 263.751 L 988.17 253.251 L 988.17 242.751 L 999.03 242.751 L 1009.89 242.751 L 1009.89 253.251 L 1009.89 263.751 L 1024.55 263.751 L 1039.21 263.751 L 1039.21 253.251 L 1039.21 242.751 L 1048.45 242.751 L 1057.68 242.751 L 1057.68 253.251 L 1057.68 263.751 L 1072.34 263.751 L 1087 263.751 L 1087 253.251 L 1087 242.751 L 1096.78 242.751 L 1106.55 242.751 L 1106.55 253.251 L 1106.55 263.751 L 1121.21 263.751 L 1135.88 263.751 L 1135.88 253.251 L 1135.88 242.751 L 1146.52 242.751 L 1157.16 242.751 L 1158.47 238.251 C 1161.72 226.951 1172.15 218.851 1185.84 216.951 L 1191.38 216.251 L 1191.59 199.551 L 1191.81 182.851 L 1187.46 181.851 C 1180.95 180.251 1176.39 177.251 1173.89 172.851 C 1171.17 167.851 1171.17 165.651 1173.89 160.651 C 1176.39 156.251 1180.95 153.251 1187.46 151.651 L 1191.81 150.651 L 1191.59 133.951 L 1191.38 117.251 L 1186.16 116.651 C 1179.54 115.751 1175.95 114.451 1169.87 110.651 C 1164.22 107.051 1158.9 99.851 1157.92 94.551 L 1157.27 90.751 L 1146.63 90.751 L 1135.88 90.751 L 1135.88 80.251 L 1135.88 69.751 L 1121.21 69.751 L 1106.55 69.751 L 1106.55 80.251 L 1106.55 90.751 L 1097.32 90.751 L 1088.09 90.751 L 1088.09 80.251 L 1088.09 69.751 L 1073.43 69.751 L 1058.77 69.751 L 1058.77 80.251 L 1058.77 90.851 L 1049.32 90.551 L 1039.76 90.251 L 1039.43 79.951 L 1039.11 69.751 L 1024.55 69.751 L 1009.89 69.751 L 1009.89 80.251 L 1009.89 90.751 L 999.03 90.751 L 988.17 90.751 L 988.17 80.251 L 988.17 69.751 L 972.964 69.751 L 957.759 69.751 L 957.759 80.251 L 957.759 90.751 L 949.071 90.751 L 940.382 90.751 L 940.382 80.251 L 940.382 69.751 L 925.177 69.751 L 909.972 69.751 L 909.972 80.251 L 909.972 90.851 L 900.523 90.551 L 890.965 90.251 L 890.965 79.951 L 890.965 69.751 L 876.086 69.751 L 861.098 69.751 L 861.098 80.251 Z M 1132.62 170.251 L 1132.62 225.751 L 999.03 225.751 L 865.442 225.751 L 865.442 170.251 L 865.442 114.751 L 999.03 114.751 L 1132.62 114.751 L 1132.62 170.251 Z" fill="#fff" stroke="none" style="stroke-width: 0.104;" transform="matrix(0.9999999999999999, 0, 0, 0.9999999999999999, 0, -5.684341886080802e-14)"/>
  <path d="M 875.217 170.251 L 875.217 217.751 L 999.03 217.751 L 1122.84 217.751 L 1122.84 170.251 L 1122.84 122.751 L 999.03 122.751 L 875.217 122.751 L 875.217 170.251 Z M 901.283 204.751 L 901.283 212.751 L 891.508 212.751 L 881.734 212.751 L 881.734 204.751 L 881.734 196.751 L 891.508 196.751 L 901.283 196.751 L 901.283 204.751 Z" fill="#fff" stroke="none" style="stroke-width: 0.104;" transform="matrix(0.9999999999999999, 0, 0, 0.9999999999999999, 0, -5.684341886080802e-14)"/>
  <path d="M 870.873 284.251 L 870.873 298.751 L 876.303 298.751 L 881.734 298.751 L 881.734 284.251 L 881.734 269.751 L 876.303 269.751 L 870.873 269.751 L 870.873 284.251 Z" fill="#fff" stroke="none" style="stroke-width: 0.104;" transform="matrix(0.9999999999999999, 0, 0, 0.9999999999999999, 0, -5.684341886080802e-14)"/>
  <path d="M 918.66 284.251 L 918.66 298.751 L 924.091 298.751 L 929.521 298.751 L 929.521 284.251 L 929.521 269.751 L 924.091 269.751 L 918.66 269.751 L 918.66 284.251 Z" fill="#fff" stroke="none" style="stroke-width: 0.104;" transform="matrix(0.9999999999999999, 0, 0, 0.9999999999999999, 0, -5.684341886080802e-14)"/>
  <path d="M 967.534 284.251 L 967.534 298.751 L 972.964 298.751 L 978.395 298.751 L 978.395 284.251 L 978.395 269.751 L 972.964 269.751 L 967.534 269.751 L 967.534 284.251 Z" fill="#fff" stroke="none" style="stroke-width: 0.104;" transform="matrix(0.9999999999999999, 0, 0, 0.9999999999999999, 0, -5.684341886080802e-14)"/>
  <path d="M 1019.67 284.251 L 1019.67 298.751 L 1025.1 298.751 L 1030.53 298.751 L 1030.53 284.251 L 1030.53 269.751 L 1025.1 269.751 L 1019.67 269.751 L 1019.67 284.251 Z" fill="#fff" stroke="none" style="stroke-width: 0.104;" transform="matrix(0.9999999999999999, 0, 0, 0.9999999999999999, 0, -5.684341886080802e-14)"/>
  <path d="M 1067.45 284.251 L 1067.45 298.751 L 1072.88 298.751 L 1078.31 298.751 L 1078.31 284.251 L 1078.31 269.751 L 1072.88 269.751 L 1067.45 269.751 L 1067.45 284.251 Z" fill="#fff" stroke="none" style="stroke-width: 0.104;" transform="matrix(0.9999999999999999, 0, 0, 0.9999999999999999, 0, -5.684341886080802e-14)"/>
  <path d="M 1116.33 284.251 L 1116.33 298.751 L 1121.76 298.751 L 1127.19 298.751 L 1127.19 284.251 L 1127.19 269.751 L 1121.76 269.751 L 1116.33 269.751 L 1116.33 284.251 Z" fill="#fff" stroke="none" style="stroke-width: 0.104;" transform="matrix(0.9999999999999999, 0, 0, 0.9999999999999999, 0, -5.684341886080802e-14)"/>
</svg>